<?xml version="1.0" encoding="UTF-8"?>
<svg xmlns="http://www.w3.org/2000/svg" viewBox="0 0 120 120" role="img" aria-label="STEP 2 icon">

  <defs>
    <filter id="s" x="-20%" y="-20%" width="140%" height="140%">
      <feDropShadow dx="0" dy="2" stdDeviation="2" flood-color="#000" flood-opacity=".18"/>
    </filter>
  </defs>
  <rect x="16" y="16" width="88" height="88" rx="18" fill="#fff" filter="url(#s)"/>

  <circle cx="50" cy="56" r="9" fill="#2f7bd9"/>
  <circle cx="70" cy="58" r="9" fill="#4aa3ff"/>
  <rect x="38" y="68" width="44" height="18" rx="9" fill="#e9eef5" stroke="#7d8b99" stroke-width="2"/>
  <path d="M52 78h16" stroke="#7d8b99" stroke-width="2" stroke-linecap="round"/>
  <path d="M42 46h16a10 10 0 0 1 10 10v4a10 10 0 0 1-10 10H52l-8 7v-7h-2a10 10 0 0 1-10-10v-4a10 10 0 0 1 10-10z" fill="#ffffff" stroke="#7d8b99" stroke-width="2"/>
  <circle cx="44" cy="58" r="2" fill="#7d8b99"/>
  <circle cx="52" cy="58" r="2" fill="#7d8b99"/>
  <circle cx="60" cy="58" r="2" fill="#7d8b99"/>

</svg>
