<?xml version="1.0" encoding="UTF-8"?>
<svg xmlns="http://www.w3.org/2000/svg" viewBox="0 0 120 120" role="img" aria-label="STEP 1 icon">

  <defs>
    <filter id="s" x="-20%" y="-20%" width="140%" height="140%">
      <feDropShadow dx="0" dy="2" stdDeviation="2" flood-color="#000" flood-opacity=".18"/>
    </filter>
  </defs>
  <rect x="16" y="16" width="88" height="88" rx="18" fill="#fff" filter="url(#s)"/>

  <rect x="44" y="30" width="32" height="60" rx="6" fill="#e9eef5" stroke="#7d8b99" stroke-width="2"/>
  <rect x="48" y="36" width="24" height="42" rx="3" fill="#ffffff"/>
  <circle cx="60" cy="84" r="3" fill="#7d8b99"/>
  <path d="M73 58c-6 10-16 18-28 23c-3 1-6-2-7-5l-2-7c-.5-2 .4-4 2.2-5l6-3c1.4-.7 3.1-.4 4.1.8l2.6 3.1c5.2-2.6 9.6-6.5 12.8-11.3l-3.0-2.5c-1.2-1-1.6-2.7-.9-4.1l3-6c.9-1.8 3-2.7 4.9-2.2l7 2c3 1 6 4 5 7z" fill="#2f7bd9" opacity=".95"/>

</svg>
