<?xml version="1.0" encoding="UTF-8"?>
<svg xmlns="http://www.w3.org/2000/svg" viewBox="0 0 120 120" role="img" aria-label="STEP 4 icon">

  <defs>
    <filter id="s" x="-20%" y="-20%" width="140%" height="140%">
      <feDropShadow dx="0" dy="2" stdDeviation="2" flood-color="#000" flood-opacity=".18"/>
    </filter>
  </defs>
  <rect x="16" y="16" width="88" height="88" rx="18" fill="#fff" filter="url(#s)"/>

  <path d="M44 30h26l10 10v50a6 6 0 0 1-6 6H44a6 6 0 0 1-6-6V36a6 6 0 0 1 6-6z" fill="#ffffff" stroke="#7d8b99" stroke-width="2"/>
  <path d="M70 30v12h12" fill="#e9eef5" stroke="#7d8b99" stroke-width="2" stroke-linejoin="round"/>
  <path d="M46 54h28" stroke="#7d8b99" stroke-width="2" stroke-linecap="round"/>
  <path d="M46 62h24" stroke="#7d8b99" stroke-width="2" stroke-linecap="round"/>
  <path d="M46 70h18" stroke="#7d8b99" stroke-width="2" stroke-linecap="round"/>
  <path d="M75 72l9 9" stroke="#2f7bd9" stroke-width="4" stroke-linecap="round"/>
  <path d="M72 84l5-5l10 10l-5 5z" fill="#2f7bd9"/>

</svg>
